{
    "asset": {
        "version": "2.0",
        "generator": "Open Asset Import Library (assimp v5.0.5eb040c7)"
    },
    "accessors": [
        {
            "bufferView": 0,
            "byteOffset": 0,
            "componentType": 5126,
            "count": 14784,
            "type": "VEC3",
            "max": [
                0.3124000132083893,
                -0.3488770127296448,
                0.3911069929599762
            ],
            "min": [
                0.27399998903274538,
                -0.4511229991912842,
                0.2888930141925812
            ]
        },
        {
            "bufferView": 1,
            "byteOffset": 0,
            "componentType": 5126,
            "count": 14784,
            "type": "VEC3",
            "max": [
                1.0,
                0.9999979734420776,
                0.9999979734420776
            ],
            "min": [
                -1.0,
                -0.9999979734420776,
                -0.9999979734420776
            ]
        },
        {
            "bufferView": 2,
            "byteOffset": 0,
            "componentType": 5126,
            "count": 14784,
            "type": "VEC2",
            "max": [
                9.089730262756348,
                2.5708000659942629
            ],
            "min": [
                -61.825801849365237,
                0.9721149802207947
            ]
        },
        {
            "bufferView": 3,
            "byteOffset": 0,
            "componentType": 5126,
            "count": 14784,
            "type": "VEC4",
            "max": [
                0.800000011920929,
                0.800000011920929,
                0.800000011920929,
                1.0
            ],
            "min": [
                0.4000000059604645,
                0.4000000059604645,
                0.4000000059604645,
                1.0
            ]
        },
        {
            "bufferView": 4,
            "byteOffset": 0,
            "componentType": 5125,
            "count": 46407,
            "type": "SCALAR",
            "max": [
                14783
            ],
            "min": [
                0
            ]
        }
    ],
    "buffers": [
        {
            "byteLength": 895260,
            "uri": "result.bin"
        }
    ],
    "bufferViews": [
        {
            "buffer": 0,
            "byteOffset": 0,
            "byteLength": 177408,
            "target": 34962
        },
        {
            "buffer": 0,
            "byteOffset": 177408,
            "byteLength": 177408,
            "target": 34962
        },
        {
            "buffer": 0,
            "byteOffset": 354816,
            "byteLength": 118272,
            "target": 34962
        },
        {
            "buffer": 0,
            "byteOffset": 473088,
            "byteLength": 236544,
            "target": 34962
        },
        {
            "buffer": 0,
            "byteOffset": 709632,
            "byteLength": 185628,
            "target": 34963
        }
    ],
    "materials": [
        {
            "name": "DefaultMaterial",
            "pbrMetallicRoughness": {
                "baseColorFactor": [
                    0.6000000238418579,
                    0.6000000238418579,
                    0.6000000238418579,
                    1.0
                ],
                "metallicFactor": 0.0
            }
        }
    ],
    "meshes": [
        {
            "name": "Link_7",
            "primitives": [
                {
                    "mode": 4,
                    "material": 0,
                    "indices": 4,
                    "attributes": {
                        "POSITION": 0,
                        "NORMAL": 1,
                        "TEXCOORD_0": 2,
                        "COLOR_0": 3
                    }
                }
            ]
        }
    ],
    "nodes": [
        {
            "name": "input.obj",
            "children": [
                1
            ]
        },
        {
            "name": "Link_7",
            "mesh": 0
        }
    ],
    "scenes": [
        {
            "nodes": [
                0
            ]
        }
    ],
    "scene": 0
}