{
    "asset": {
        "version": "2.0",
        "generator": "Open Asset Import Library (assimp v5.0.5eb040c7)"
    },
    "accessors": [
        {
            "bufferView": 0,
            "byteOffset": 0,
            "componentType": 5126,
            "count": 15472,
            "type": "VEC3",
            "max": [
                0.4679979979991913,
                0.06797999888658524,
                0.4545930027961731
            ],
            "min": [
                0.20749999582767487,
                -0.06797999888658524,
                0.2720089852809906
            ]
        },
        {
            "bufferView": 1,
            "byteOffset": 0,
            "componentType": 5126,
            "count": 15472,
            "type": "VEC3",
            "max": [
                1.0,
                1.0,
                0.9998372197151184
            ],
            "min": [
                -1.0,
                -1.0,
                -1.0
            ]
        },
        {
            "bufferView": 2,
            "byteOffset": 0,
            "componentType": 5126,
            "count": 15472,
            "type": "VEC2",
            "max": [
                6.422810077667236,
                1.143038034439087
            ],
            "min": [
                -0.06981319934129715,
                -0.00002002716064453125
            ]
        },
        {
            "bufferView": 3,
            "byteOffset": 0,
            "componentType": 5126,
            "count": 15472,
            "type": "VEC4",
            "max": [
                0.800000011920929,
                0.800000011920929,
                0.800000011920929,
                1.0
            ],
            "min": [
                0.800000011920929,
                0.800000011920929,
                0.800000011920929,
                1.0
            ]
        },
        {
            "bufferView": 4,
            "byteOffset": 0,
            "componentType": 5125,
            "count": 85842,
            "type": "SCALAR",
            "max": [
                15471
            ],
            "min": [
                0
            ]
        }
    ],
    "buffers": [
        {
            "byteLength": 1086024,
            "uri": "result.bin"
        }
    ],
    "bufferViews": [
        {
            "buffer": 0,
            "byteOffset": 0,
            "byteLength": 185664,
            "target": 34962
        },
        {
            "buffer": 0,
            "byteOffset": 185664,
            "byteLength": 185664,
            "target": 34962
        },
        {
            "buffer": 0,
            "byteOffset": 371328,
            "byteLength": 123776,
            "target": 34962
        },
        {
            "buffer": 0,
            "byteOffset": 495104,
            "byteLength": 247552,
            "target": 34962
        },
        {
            "buffer": 0,
            "byteOffset": 742656,
            "byteLength": 343368,
            "target": 34963
        }
    ],
    "materials": [
        {
            "name": "DefaultMaterial",
            "pbrMetallicRoughness": {
                "baseColorFactor": [
                    0.6000000238418579,
                    0.6000000238418579,
                    0.6000000238418579,
                    1.0
                ],
                "metallicFactor": 0.0
            }
        }
    ],
    "meshes": [
        {
            "name": "Link_3",
            "primitives": [
                {
                    "mode": 4,
                    "material": 0,
                    "indices": 4,
                    "attributes": {
                        "POSITION": 0,
                        "NORMAL": 1,
                        "TEXCOORD_0": 2,
                        "COLOR_0": 3
                    }
                }
            ]
        }
    ],
    "nodes": [
        {
            "name": "input.obj",
            "children": [
                1
            ]
        },
        {
            "name": "Link_3",
            "mesh": 0
        }
    ],
    "scenes": [
        {
            "nodes": [
                0
            ]
        }
    ],
    "scene": 0
}