{"accessors" : [{"bufferView" : 0, "byteOffset" : 0, "componentType" : 5123, "count" : 55146, "type" : "SCALAR", "max" : [48867], "min" : [0]}, {"bufferView" : 1, "byteOffset" : 0, "componentType" : 5126, "count" : 48868, "type" : "VEC3", "max" : [0.12627199292182922, 0.12639999389648438, 0.15700000524520874], "min" : [-0.12639999389648438, -0.12639999389648438, -1.1802099575408675E-10], "name" : "POSITION"}, {"bufferView" : 1, "byteOffset" : 12, "componentType" : 5126, "count" : 48868, "type" : "VEC3", "max" : [0.6038273572921753, 0.6038273572921753, 0.6038273572921753], "min" : [0.6038273572921753, 0.6038273572921753, 0.6038273572921753], "name" : "COLOR_0"}, {"bufferView" : 1, "byteOffset" : 24, "componentType" : 5126, "count" : 48868, "type" : "VEC3", "max" : [1.0000044107437134, 1.0000044107437134, 1.0000044107437134], "min" : [-1.0000044107437134, -1.0000044107437134, -1.0000044107437134], "name" : "NORMAL"}, {"bufferView" : 1, "byteOffset" : 36, "componentType" : 5126, "count" : 48868, "type" : "VEC2", "max" : [6.909369945526123, 0.18111200630664825], "min" : [-106.81400299072266, -3.0892300605773926], "name" : "TEXCOORD_0"}], "asset" : {"generator" : "Aspose.3D 23.4.0", "version" : "2.0"}, "buffers" : [{"uri" : "data:application/octet-stream;base64,", "byteLength" : 2536724}], "bufferViews" : [{"buffer" : 0, "byteOffset" : 0, "byteLength" : 110292, "target" : 34963}, {"buffer" : 0, "byteOffset" : 110296, "byteLength" : 2426424, "byteStride" : 44, "target" : 34962}], "materials" : [{"name" : "Material", "pbrMetallicRoughness" : {"baseColorFactor" : [0.5775804404214573, 0.5775804404214573, 0.5775804404214573, 1], "metallicFactor" : 1, "roughnessFactor" : 1}, "emissiveFactor" : [0, 0, 0], "alphaMode" : "OPAQUE", "doubleSided" : true}], "meshes" : [{"primitives" : [{"attributes" : {"POSITION" : 1, "COLOR_0" : 2, "NORMAL" : 3, "TEXCOORD_0" : 4}, "indices" : 0, "material" : 0, "mode" : 4}]}], "nodes" : [{"mesh" : 0, "name" : "Node #0"}], "scene" : 0, "scenes" : [{"nodes" : [0]}]}